<mxfile host="app.diagrams.net" modified="2023-04-24T13:05:52.250Z" agent="Mozilla/5.0 (Windows NT 10.0; Win64; x64; rv:109.0) Gecko/20100101 Firefox/112.0" version="21.2.0" etag="xM2GYB6HHoXzClvFbebN" type="github">
  <diagram name="Sivu-1" id="bLh945Kepugdm_rfhFoK">
    <mxGraphModel>
      <root>
        <mxCell id="0" />
        <mxCell id="1" parent="0" />
      </root>
    </mxGraphModel>
  </diagram>
</mxfile>
